HIERARCHY
ROOT Hips
{
	OFFSET 0.000000 100.481300 0.000000
	CHANNELS 6 Xposition Yposition Zposition Xrotation Yrotation Zrotation 
	JOINT Spine
	{
		OFFSET -0.279200 12.230698 -2.892100
		CHANNELS 3 Xrotation Yrotation Zrotation
		JOINT Spine1
		{
			OFFSET -0.232667 10.192268 -1.242267
			CHANNELS 3 Xrotation Yrotation Zrotation
			JOINT Spine1_split
			{
				OFFSET -0.232667 10.192268 -1.242267
				CHANNELS 3 Xrotation Yrotation Zrotation
				JOINT Spine2
				{
					OFFSET -0.232667 10.192268 -1.242267
					CHANNELS 3 Xrotation Yrotation Zrotation
					JOINT Neck
					{
						OFFSET -0.418800 17.814194 8.416900
						CHANNELS 3 Xrotation Yrotation Zrotation
						JOINT Head
						{
							OFFSET 0.000000 7.031097 3.806800
							CHANNELS 3 Xrotation Yrotation Zrotation
							JOINT HeadTop_End
							{
								OFFSET 0.000000 24.646606 12.978600
								CHANNELS 3 Xrotation Yrotation Zrotation
								End Site
								{
									OFFSET 0.000000 0.000000 0.000000
								}
							}
						}
					}
					JOINT LeftShoulder
					{
						OFFSET 8.476499 7.247704 -3.868750
						CHANNELS 3 Xrotation Yrotation Zrotation
						JOINT LeftShoulder_split
						{
							OFFSET 8.476499 7.247704 -3.868750
							CHANNELS 3 Xrotation Yrotation Zrotation
							JOINT LeftArm
							{
								OFFSET 9.308998 -2.777710 0.208600
								CHANNELS 3 Xrotation Yrotation Zrotation
								JOINT LeftForeArm
								{
									OFFSET 29.972298 0.000000 0.000000
									CHANNELS 3 Xrotation Yrotation Zrotation
									JOINT LeftHand
									{
										OFFSET 26.026505 0.000000 0.000000
										CHANNELS 3 Xrotation Yrotation Zrotation
										JOINT LeftHandThumb1
										{
											OFFSET 12.240501 -7.147949 9.207150
											CHANNELS 3 Xrotation Yrotation Zrotation
											JOINT LeftHandThumb2
											{
												OFFSET 4.138618 -2.389435 2.389433
												CHANNELS 3 Xrotation Yrotation Zrotation
												JOINT LeftHandThumb3
												{
													OFFSET 2.726913 -1.574387 1.574386
													CHANNELS 3 Xrotation Yrotation Zrotation
													JOINT LeftHandThumb4
													{
														OFFSET 3.941010 -2.275345 2.275342
														CHANNELS 3 Xrotation Yrotation Zrotation
														End Site
														{
															OFFSET 0.000000 0.000000 0.000000
														}
													}
												}
											}
										}
										JOINT LeftHandIndex1
										{
											OFFSET 24.424698 -1.985611 5.953459
											CHANNELS 3 Xrotation Yrotation Zrotation
											JOINT LeftHandIndex2
											{
												OFFSET 6.426697 0.000000 0.000000
												CHANNELS 3 Xrotation Yrotation Zrotation
												JOINT LeftHandIndex3
												{
													OFFSET 5.337898 0.000000 0.000000
													CHANNELS 3 Xrotation Yrotation Zrotation
													JOINT LeftHandIndex4
													{
														OFFSET 4.409401 0.000000 0.000000
														CHANNELS 3 Xrotation Yrotation Zrotation
														End Site
														{
															OFFSET 0.000000 0.000000 0.000000
														}
													}
												}
											}
										}
										JOINT LeftHandMiddle1
										{
											OFFSET 23.810104 0.000000 0.000000
											CHANNELS 3 Xrotation Yrotation Zrotation
											JOINT LeftHandMiddle2
											{
												OFFSET 7.176498 0.000000 0.000000
												CHANNELS 3 Xrotation Yrotation Zrotation
												JOINT LeftHandMiddle3
												{
													OFFSET 6.774902 0.000000 0.000000
													CHANNELS 3 Xrotation Yrotation Zrotation
													JOINT LeftHandMiddle4
													{
														OFFSET 5.403328 0.000000 0.000000
														CHANNELS 3 Xrotation Yrotation Zrotation
														End Site
														{
															OFFSET 0.000000 0.000000 0.000000
														}
													}
												}
											}
										}
										JOINT LeftHandRing1
										{
											OFFSET 22.908401 -0.839279 -6.020567
											CHANNELS 3 Xrotation Yrotation Zrotation
											JOINT LeftHandRing2
											{
												OFFSET 6.337502 0.000000 0.000000
												CHANNELS 3 Xrotation Yrotation Zrotation
												JOINT LeftHandRing3
												{
													OFFSET 5.779297 0.000000 0.000000
													CHANNELS 3 Xrotation Yrotation Zrotation
													JOINT LeftHandRing4
													{
														OFFSET 4.965698 0.000000 0.000000
														CHANNELS 3 Xrotation Yrotation Zrotation
														End Site
														{
															OFFSET 0.000000 0.000000 0.000000
														}
													}
												}
											}
										}
										JOINT LeftHandPinky1
										{
											OFFSET 20.037003 -1.530319 -10.950146
											CHANNELS 3 Xrotation Yrotation Zrotation
											JOINT LeftHandPinky2
											{
												OFFSET 5.254700 0.000000 0.000000
												CHANNELS 3 Xrotation Yrotation Zrotation
												JOINT LeftHandPinky3
												{
													OFFSET 4.810204 0.000000 0.000000
													CHANNELS 3 Xrotation Yrotation Zrotation
													JOINT LeftHandPinky4
													{
														OFFSET 3.647202 0.000000 0.000000
														CHANNELS 3 Xrotation Yrotation Zrotation
														End Site
														{
															OFFSET 0.000000 0.000000 0.000000
														}
													}
												}
											}
										}
									}
								}
							}
						}
					}
					JOINT RightShoulder
					{
						OFFSET -7.570500 7.247704 -3.868750
						CHANNELS 3 Xrotation Yrotation Zrotation
						JOINT RightShoulder_split
						{
							OFFSET -7.570500 7.247704 -3.868750
							CHANNELS 3 Xrotation Yrotation Zrotation
							JOINT RightArm
							{
								OFFSET -9.308998 -2.777710 0.208500
								CHANNELS 3 Xrotation Yrotation Zrotation
								JOINT RightForeArm
								{
									OFFSET -29.972300 0.000000 0.000000
									CHANNELS 3 Xrotation Yrotation Zrotation
									JOINT RightHand
									{
										OFFSET -26.026505 0.000000 0.000000
										CHANNELS 3 Xrotation Yrotation Zrotation
										JOINT RightHandThumb1
										{
											OFFSET -12.240601 -7.148026 9.207092
											CHANNELS 3 Xrotation Yrotation Zrotation
											JOINT RightHandThumb2
											{
												OFFSET -4.138618 -2.389435 2.389433
												CHANNELS 3 Xrotation Yrotation Zrotation
												JOINT RightHandThumb3
												{
													OFFSET -2.726974 -1.574417 1.574421
													CHANNELS 3 Xrotation Yrotation Zrotation
													JOINT RightHandThumb4
													{
														OFFSET -3.941010 -2.275345 2.275343
														CHANNELS 3 Xrotation Yrotation Zrotation
														End Site
														{
															OFFSET 0.000000 0.000000 0.000000
														}
													}
												}
											}
										}
										JOINT RightHandIndex1
										{
											OFFSET -24.424698 -1.985657 5.953444
											CHANNELS 3 Xrotation Yrotation Zrotation
											JOINT RightHandIndex2
											{
												OFFSET -6.426697 0.000000 0.000000
												CHANNELS 3 Xrotation Yrotation Zrotation
												JOINT RightHandIndex3
												{
													OFFSET -5.337898 0.000000 0.000000
													CHANNELS 3 Xrotation Yrotation Zrotation
													JOINT RightHandIndex4
													{
														OFFSET -4.409401 0.000000 0.000000
														CHANNELS 3 Xrotation Yrotation Zrotation
														End Site
														{
															OFFSET 0.000000 0.000000 0.000000
														}
													}
												}
											}
										}
										JOINT RightHandMiddle1
										{
											OFFSET -23.810097 0.000000 0.000000
											CHANNELS 3 Xrotation Yrotation Zrotation
											JOINT RightHandMiddle2
											{
												OFFSET -7.176498 0.000000 0.000000
												CHANNELS 3 Xrotation Yrotation Zrotation
												JOINT RightHandMiddle3
												{
													OFFSET -6.774902 0.000000 0.000000
													CHANNELS 3 Xrotation Yrotation Zrotation
													JOINT RightHandMiddle4
													{
														OFFSET -5.403328 0.000000 0.000000
														CHANNELS 3 Xrotation Yrotation Zrotation
														End Site
														{
															OFFSET 0.000000 0.000000 0.000000
														}
													}
												}
											}
										}
										JOINT RightHandRing1
										{
											OFFSET -22.908302 -0.839325 -6.020576
											CHANNELS 3 Xrotation Yrotation Zrotation
											JOINT RightHandRing2
											{
												OFFSET -6.337502 0.000000 0.000000
												CHANNELS 3 Xrotation Yrotation Zrotation
												JOINT RightHandRing3
												{
													OFFSET -5.779297 0.000000 0.000000
													CHANNELS 3 Xrotation Yrotation Zrotation
													JOINT RightHandRing4
													{
														OFFSET -4.965698 0.000000 0.000000
														CHANNELS 3 Xrotation Yrotation Zrotation
														End Site
														{
															OFFSET 0.000000 0.000000 0.000000
														}
													}
												}
											}
										}
										JOINT RightHandPinky1
										{
											OFFSET -20.037003 -1.530334 -10.950259
											CHANNELS 3 Xrotation Yrotation Zrotation
											JOINT RightHandPinky2
											{
												OFFSET -5.254700 0.000000 0.000000
												CHANNELS 3 Xrotation Yrotation Zrotation
												JOINT RightHandPinky3
												{
													OFFSET -4.810204 0.000000 0.000000
													CHANNELS 3 Xrotation Yrotation Zrotation
													JOINT RightHandPinky4
													{
														OFFSET -3.647202 0.000000 0.000000
														CHANNELS 3 Xrotation Yrotation Zrotation
														End Site
														{
															OFFSET 0.000000 0.000000 0.000000
														}
													}
												}
											}
										}
									}
								}
							}
						}
					}
				}
			}
		}
	}
	JOINT LeftUpLeg
	{
		OFFSET 15.427100 -6.655098 0.678600
		CHANNELS 3 Xrotation Yrotation Zrotation
		JOINT LeftLeg
		{
			OFFSET 4.081073 -39.591068 13.024000
			CHANNELS 3 Xrotation Yrotation Zrotation
			JOINT LeftFoot
			{
				OFFSET -4.081074 -37.707932 -15.979700
				CHANNELS 3 Xrotation Yrotation Zrotation
				JOINT LeftToeBase
				{
					OFFSET 5.346399 -15.068900 20.645000
					CHANNELS 3 Xrotation Yrotation Zrotation
					JOINT LeftToe_End
					{
						OFFSET 2.754700 0.931300 11.300900
						CHANNELS 3 Xrotation Yrotation Zrotation
						End Site
						{
							OFFSET 0.000000 0.000000 0.000000
						}
					}
				}
			}
		}
	}
	JOINT RightUpLeg
	{
		OFFSET -15.569500 -6.655098 0.678600
		CHANNELS 3 Xrotation Yrotation Zrotation
		JOINT RightLeg
		{
			OFFSET -4.081825 -39.591045 13.023800
			CHANNELS 3 Xrotation Yrotation Zrotation
			JOINT RightFoot
			{
				OFFSET 4.081824 -37.707954 -15.979600
				CHANNELS 3 Xrotation Yrotation Zrotation
				JOINT RightToeBase
				{
					OFFSET -5.346400 -15.068900 20.645000
					CHANNELS 3 Xrotation Yrotation Zrotation
					JOINT RightToe_End
					{
						OFFSET -2.754700 0.931300 11.300900
						CHANNELS 3 Xrotation Yrotation Zrotation
						End Site
						{
							OFFSET 0.000000 0.000000 0.000000
						}
					}
				}
			}
		}
	}
}
MOTION
Frames: 4
Frame Time: 0.016667
3.823558 87.727142 0.255922 -174.064475 -97.718615 -172.257193 7.226098 -5.579558 -4.274135 3.180251 -8.412485 -0.457312 0.000000 0.000000 0.000000 3.240270 -8.382695 -0.141387 -11.954772 7.249591 7.049806 90.964043 78.695070 -96.836148 0.000001 0.000000 -0.000000 4.998837 3.199399 13.148479 0.000000 0.000000 0.000000 -41.287165 14.474964 -0.764738 0.404863 -12.304734 -0.189204 -49.608200 -4.504511 -0.286687 40.109944 -15.297228 -0.360436 5.639925 28.097740 11.338730 1.088511 40.896318 22.734040 0.000001 0.000004 0.000003 6.882285 2.840007 -61.140493 8.247958 7.640053 -89.897912 2.146188 8.173412 -41.827805 -0.000002 0.000000 -0.000001 -2.345525 4.688862 -62.655272 8.754190 9.897070 -87.051273 1.995349 4.929254 -37.483416 -0.000002 -0.000001 0.000002 -9.042475 10.045601 -60.766192 8.524017 9.508881 -66.892899 6.576543 9.896787 -70.385120 -0.000002 0.000000 -0.000002 -17.946786 14.754986 -51.485922 8.868342 8.667000 -84.811989 4.540450 8.852607 -59.152983 -0.000000 -0.000000 -0.000002 -0.697214 3.176119 -19.419908 0.000000 0.000000 0.000000 -43.720389 41.405956 39.746209 -0.236291 135.165127 1.057693 -74.611860 -0.241674 -6.555967 0.277502 -1.521508 -1.570515 7.169047 -41.689654 -15.773497 -4.517972 11.064485 4.673953 -0.000002 0.000004 0.000002 6.412843 -12.738385 14.389578 9.941746 -7.465166 101.743229 4.405028 -9.947440 61.138874 -0.000000 0.000001 -0.000000 2.653199 -11.302324 44.730933 9.916114 -9.880660 94.351222 8.462603 -8.530822 83.992243 -0.000001 -0.000000 -0.000003 2.140165 -7.454474 61.765018 9.609251 -8.992478 89.388694 11.175472 -10.370850 97.638162 0.000001 -0.000001 -0.000000 -4.886658 -23.798122 68.396169 13.518294 -7.949268 112.864949 8.544481 -10.117954 85.305648 -0.000000 -0.000001 -0.000000 -23.763032 29.983451 29.765855 22.686362 -9.710088 0.125342 -2.399324 4.842208 -17.971213 -1.333111 -0.000678 -0.000047 0.000000 -0.000002 -0.000000 -25.158184 -8.050119 -27.720050 19.658775 4.727089 -3.340665 0.772383 7.599837 24.080523 0.053354 -0.000391 -0.000009 -0.000000 0.000000 -0.000000 
3.781146 87.724831 0.246776 -174.165575 -97.796568 -172.334333 7.210889 -5.614862 -4.313883 3.193037 -8.441206 -0.434100 0.000000 0.000000 0.000000 3.256757 -8.414373 -0.119544 -11.939455 7.256022 7.066639 91.444950 78.685439 -97.309637 0.000001 0.000000 0.000000 4.942448 3.372603 13.150522 0.000000 0.000000 0.000000 -41.216794 14.374468 -0.890729 0.408203 -12.293944 -0.188316 -49.593519 -4.514072 -0.289864 40.109944 -15.297228 -0.360436 5.639925 28.097740 11.338729 1.088509 40.896321 22.734040 -0.000002 0.000004 0.000000 6.882281 2.840007 -61.140486 8.247961 7.640052 -89.897912 2.146192 8.173411 -41.827809 0.000001 0.000000 -0.000003 -2.345526 4.688863 -62.655265 8.754189 9.897071 -87.051273 1.995351 4.929256 -37.483422 -0.000000 0.000000 -0.000000 -9.042476 10.045601 -60.766192 8.524017 9.508883 -66.892892 6.576539 9.896786 -70.385127 -0.000001 0.000001 -0.000002 -17.946786 14.754986 -51.485925 8.868342 8.666999 -84.811989 4.540452 8.852607 -59.152983 -0.000001 -0.000000 0.000002 -0.667744 3.236935 -19.377586 0.000000 0.000000 0.000000 -43.532515 41.170540 39.610992 -0.208228 135.324585 1.024194 -74.601259 -0.328475 -6.443866 0.277505 -1.521508 -1.570516 7.169046 -41.689651 -15.773504 -4.517975 11.064484 4.673955 -0.000000 0.000001 0.000002 6.412846 -12.738388 14.389576 9.941742 -7.465166 101.743229 4.405025 -9.947432 61.138874 0.000002 -0.000000 0.000000 2.653201 -11.302324 44.730929 9.916116 -9.880658 94.351215 8.462607 -8.530820 83.992243 0.000002 0.000000 0.000001 2.140171 -7.454474 61.765018 9.609250 -8.992474 89.388694 11.175475 -10.370847 97.638162 -0.000000 0.000000 -0.000000 -4.886655 -23.798122 68.396169 13.518296 -7.949270 112.864949 8.544480 -10.117952 85.305648 0.000000 0.000001 -0.000002 -23.725026 29.952702 29.718737 22.660090 -9.739151 0.123696 -2.392984 4.840981 -17.975572 -1.325655 -0.000748 -0.000032 -0.000000 -0.000002 -0.000000 -25.072212 -8.008829 -27.761681 19.707169 4.638011 -3.346305 0.685735 7.559215 24.124597 0.051895 -0.000350 -0.000017 0.000000 0.000000 -0.000000 
3.738929 87.722054 0.237645 -174.262810 -97.873892 -172.407717 7.196606 -5.648487 -4.356825 3.205281 -8.468309 -0.412650 0.000000 0.000000 0.000000 3.272585 -8.444011 -0.099793 -11.924548 7.262624 7.083637 92.002518 78.676054 -97.862629 -0.000000 -0.000000 0.000000 4.890242 3.523463 13.153894 0.000000 0.000000 0.000000 -41.149844 14.283751 -0.998570 0.411573 -12.282986 -0.187459 -49.578772 -4.523377 -0.293025 40.109948 -15.297230 -0.360436 5.639927 28.097740 11.338730 1.088509 40.896314 22.734040 0.000001 -0.000001 -0.000001 6.882286 2.840007 -61.140493 8.247961 7.640058 -89.897912 2.146190 8.173412 -41.827809 -0.000003 -0.000002 0.000001 -2.345525 4.688861 -62.655265 8.754190 9.897071 -87.051273 1.995348 4.929258 -37.483416 -0.000002 0.000001 -0.000000 -9.042474 10.045601 -60.766199 8.524018 9.508882 -66.892899 6.576542 9.896784 -70.385120 -0.000000 -0.000000 -0.000001 -17.946785 14.754984 -51.485925 8.868342 8.666997 -84.811982 4.540451 8.852606 -59.152983 0.000000 0.000000 -0.000003 -0.637568 3.300943 -19.333486 0.000000 0.000000 0.000000 -43.321537 40.922563 39.468938 -0.182320 135.493973 0.993859 -74.580085 -0.410721 -6.329827 0.277503 -1.521508 -1.570516 7.169048 -41.689648 -15.773497 -4.517973 11.064480 4.673958 0.000000 0.000003 0.000003 6.412848 -12.738387 14.389576 9.941742 -7.465164 101.743229 4.405024 -9.947438 61.138881 -0.000002 0.000000 -0.000000 2.653200 -11.302325 44.730933 9.916114 -9.880659 94.351215 8.462607 -8.530817 83.992243 -0.000000 -0.000002 0.000004 2.140169 -7.454475 61.765018 9.609250 -8.992477 89.388694 11.175473 -10.370850 97.638162 -0.000002 0.000001 -0.000002 -4.886658 -23.798124 68.396169 13.518301 -7.949270 112.864949 8.544479 -10.117952 85.305648 -0.000000 0.000000 -0.000002 -23.688776 29.923076 29.672698 22.635097 -9.769419 0.122122 -2.387145 4.840036 -17.979474 -1.331764 -0.000692 -0.000037 0.000000 0.000001 0.000000 -24.987217 -7.967289 -27.803678 19.756433 4.546719 -3.351869 0.598785 7.521570 24.169080 0.052034 -0.000411 -0.000004 -0.000000 0.000000 -0.000000 
3.696972 87.718811 0.228638 -174.356630 -97.950664 -172.477849 7.183184 -5.682869 -4.399472 3.217087 -8.497986 -0.386803 0.000000 0.000000 0.000000 3.288895 -8.475682 -0.075523 -11.909491 7.269100 7.100595 92.471793 78.666950 -98.326290 0.000001 0.000000 -0.000000 4.841601 3.655645 13.158282 0.000000 0.000000 0.000000 -41.084059 14.218002 -1.098235 0.414902 -12.271938 -0.186576 -49.563742 -4.532722 -0.296223 40.109948 -15.297228 -0.360437 5.639928 28.097739 11.338729 1.088515 40.896325 22.734049 0.000001 -0.000003 -0.000002 6.882286 2.840007 -61.140493 8.247958 7.640054 -89.897912 2.146190 8.173412 -41.827809 -0.000000 -0.000003 0.000001 -2.345526 4.688862 -62.655272 8.754188 9.897070 -87.051273 1.995349 4.929255 -37.483416 0.000002 -0.000001 0.000002 -9.042475 10.045600 -60.766199 8.524018 9.508883 -66.892899 6.576537 9.896789 -70.385120 0.000001 -0.000000 -0.000001 -17.946786 14.754986 -51.485925 8.868343 8.666998 -84.811989 4.540451 8.852608 -59.152983 0.000000 0.000000 -0.000002 -0.606759 3.367922 -19.287857 0.000000 0.000000 0.000000 -43.123328 40.674992 39.333000 -0.149034 135.647939 0.959565 -74.559807 -0.500121 -6.199158 0.277500 -1.521508 -1.570516 7.169046 -41.689651 -15.773499 -4.517969 11.064482 4.673955 -0.000005 0.000003 0.000001 6.412844 -12.738387 14.389578 9.941749 -7.465165 101.743229 4.405027 -9.947439 61.138874 -0.000001 0.000000 -0.000000 2.653197 -11.302324 44.730929 9.916117 -9.880663 94.351215 8.462605 -8.530822 83.992236 0.000001 -0.000001 0.000005 2.140166 -7.454475 61.765025 9.609250 -8.992476 89.388694 11.175472 -10.370846 97.638162 -0.000000 0.000002 0.000000 -4.886660 -23.798124 68.396169 13.518298 -7.949271 112.864949 8.544480 -10.117954 85.305648 -0.000000 0.000000 -0.000001 -23.655049 29.894867 29.625423 22.611471 -9.815200 0.119809 -2.381411 4.853880 -17.978774 -1.321097 -0.000649 -0.000038 -0.000000 0.000001 0.000000 -24.903040 -7.925882 -27.845582 19.805889 4.455447 -3.357210 0.512212 7.484731 24.213509 0.049751 -0.000372 -0.000004 -0.000000 0.000000 -0.000000 
